<?xml version="1.0" encoding="UTF-8" standalone="no"?>
<!-- Created with Inkscape (http://www.inkscape.org/) -->

<svg
   xmlns:dc="http://purl.org/dc/elements/1.1/"
   xmlns:cc="http://creativecommons.org/ns#"
   xmlns:rdf="http://www.w3.org/1999/02/22-rdf-syntax-ns#"
   xmlns:svg="http://www.w3.org/2000/svg"
   xmlns="http://www.w3.org/2000/svg"
   xmlns:xlink="http://www.w3.org/1999/xlink"
   xmlns:sodipodi="http://sodipodi.sourceforge.net/DTD/sodipodi-0.dtd"
   xmlns:inkscape="http://www.inkscape.org/namespaces/inkscape"
   width="100%"
   height="100%"
   viewBox="0 0 1200 300"
   id="svg4186"
   version="1.1"
   inkscape:version="0.91 r13725"
   inkscape:export-filename="D:\Otros\RecentProjects\ExcelProjects\Web\Cotizador\src\assets\logocolored.png"
   inkscape:export-xdpi="96"
   inkscape:export-ydpi="96"
   sodipodi:docname="logocol.svg">
  <defs
     id="defs4188">
    <linearGradient
       id="linearGradient4857">
      <stop
         style="stop-color:#ffffff;stop-opacity:1"
         offset="0"
         id="stop4859" />
      <stop
         style="stop-color:#000000;stop-opacity:1"
         offset="1"
         id="stop4861" />
    </linearGradient>
    <linearGradient
       xlink:href="#linearGradient4857"
       id="linearGradient4883"
       gradientUnits="userSpaceOnUse"
       x1="67.421806"
       y1="23.442385"
       x2="67.421799"
       y2="40.215614"
       gradientTransform="translate(0.51563331,-45.166126)" />
    <mask
       maskUnits="userSpaceOnUse"
       id="mask4879">
      <rect
         style="opacity:1;fill:url(#linearGradient4883);fill-opacity:1;stroke:none;stroke-width:6.99700022;stroke-miterlimit:4;stroke-dasharray:none;stroke-opacity:1"
         id="rect4881"
         width="156.38571"
         height="24.173185"
         x="2.4889545"
         y="-21.805964"
         transform="scale(1,-1)" />
    </mask>
    <filter
       style="color-interpolation-filters:sRGB"
       id="filter5902"
       x="-0.029695651"
       width="1.0593913"
       y="-1.1927752"
       height="3.3855505">
      <feGaussianBlur
         stdDeviation="0.98072033"
         id="feGaussianBlur5904" />
    </filter>
    <filter
       style="color-interpolation-filters:sRGB"
       id="filter5906"
       x="-0.13751712"
       width="1.2750343"
       y="-1.9448851"
       height="4.88977">
      <feGaussianBlur
         stdDeviation="0.93281881"
         id="feGaussianBlur5908" />
    </filter>
    <filter
       style="color-interpolation-filters:sRGB"
       id="filter5910"
       x="-0.044137508"
       width="1.088275"
       y="-1.3329529"
       height="3.6659057">
      <feGaussianBlur
         stdDeviation="0.91331389"
         id="feGaussianBlur5912" />
    </filter>
  </defs>
  <sodipodi:namedview
     id="base"
     pagecolor="#ffffff"
     bordercolor="#666666"
     borderopacity="1.0"
     inkscape:pageopacity="0.0"
     inkscape:pageshadow="2"
     inkscape:zoom="0.70710678"
     inkscape:cx="362.59102"
     inkscape:cy="283.04753"
     inkscape:document-units="px"
     inkscape:current-layer="layer1"
     showgrid="false"
     inkscape:window-width="1920"
     inkscape:window-height="1017"
     inkscape:window-x="-8"
     inkscape:window-y="-8"
     inkscape:window-maximized="1" />
  <metadata
     id="metadata4191">
    <rdf:RDF>
      <cc:Work
         rdf:about="">
        <dc:format>image/svg+xml</dc:format>
        <dc:type
           rdf:resource="http://purl.org/dc/dcmitype/StillImage" />
        <dc:title />
      </cc:Work>
    </rdf:RDF>
  </metadata>
  <g
     inkscape:label="Capa 1"
     inkscape:groupmode="layer"
     id="layer1">
    <g
       transform="matrix(7.7221895,0,0,7.3351017,-32.935312,23.688575)"
       id="g4792"
       style="fill:#828282;fill-opacity:0.94117647;opacity:0.9">
      <path
         inkscape:connector-curvature="0"
         style="display:inline;fill:#828282;fill-opacity:0.94117647;fill-rule:evenodd;stroke:none;stroke-width:0.98867416px;stroke-linecap:butt;stroke-linejoin:miter;stroke-opacity:1"
         d="m 68.73124,20.780106 c 8.551905,0.59703 7.682405,-11.5295674 7.773575,-11.2340774 l -7.778175,0.076 -0.0566,-0.0429 z"
         id="path6340-4-5" />
      <rect
         style="display:inline;opacity:1;fill:#828282;fill-opacity:0.94117647;stroke:none;stroke-width:1.77199996;stroke-linejoin:round;stroke-miterlimit:4;stroke-dasharray:none;stroke-opacity:1"
         id="rect6271-2"
         width="7.8302307"
         height="7.5967402"
         x="68.672318"
         y="0.43464836" />
      <rect
         style="display:inline;opacity:1;fill:#828282;fill-opacity:0.94117647;stroke:none;stroke-width:1.77199996;stroke-linejoin:round;stroke-miterlimit:4;stroke-dasharray:none;stroke-opacity:1"
         id="rect6271"
         width="7.8302307"
         height="7.5967402"
         x="59.407787"
         y="0.48168358" />
      <path
         inkscape:connector-curvature="0"
         style="display:inline;fill:#828282;fill-opacity:0.94117647;fill-rule:evenodd;stroke:none;stroke-width:0.98867416px;stroke-linecap:butt;stroke-linejoin:miter;stroke-opacity:1"
         d="M 67.22051,20.862916 C 58.668597,21.459936 59.538097,9.3333486 59.446927,9.6288286 l 7.778183,0.076 0.0566,-0.0429 z"
         id="path6340-4" />
    </g>
    <text
       sodipodi:linespacing="125%"
       id="text6235"
       y="144.48172"
       x="21.159416"
       style="font-style:normal;font-weight:normal;font-size:117.04420471px;line-height:125%;font-family:sans-serif;letter-spacing:0px;word-spacing:0px;display:inline;fill:#828282;fill-opacity:0.94117647;stroke:none;stroke-width:1px;stroke-linecap:butt;stroke-linejoin:miter;stroke-opacity:1;opacity:0.9;"
       xml:space="preserve"
       transform="scale(1.0260468,0.97461444)"><tspan
         style="fill:#828282;fill-opacity:0.94117647;"
         y="144.48172"
         x="21.159416"
         id="tspan6237">EXCEL</tspan></text>
    <text
       sodipodi:linespacing="125%"
       id="text6372"
       y="140.41443"
       x="550.23834"
       style="font-style:normal;font-weight:normal;font-size:113.34705353px;line-height:125%;font-family:sans-serif;letter-spacing:0px;word-spacing:0px;display:inline;fill:#828282;fill-opacity:0.94117647;stroke:none;stroke-width:0.2;stroke-linecap:butt;stroke-linejoin:miter;stroke-miterlimit:4;stroke-dasharray:none;stroke-opacity:1;opacity:0.9;"
       xml:space="preserve"
       transform="scale(1.0260468,0.97461444)"><tspan
         style="font-style:normal;font-variant:normal;font-weight:bold;font-stretch:normal;font-family:sans-serif;-inkscape-font-specification:'sans-serif Bold';fill:#828282;fill-opacity:0.94117647;stroke-width:0.2;stroke-miterlimit:4;stroke-dasharray:none;"
         y="140.41443"
         x="550.23834"
         id="tspan6374">NOBLEZA</tspan></text>
    <g
       id="g4186"
       style="opacity:0.9">
      <g
         id="g4176"
         style="">
        <path
           inkscape:connector-curvature="0"
           id="path4852"
           d="m 862.67872,238.8114 c -4.15092,-0.0582 -4.74208,-0.0803 -4.84813,-0.18131 -0.0664,-0.0633 -0.12078,-0.16102 -0.12078,-0.21723 0,-0.11179 0.76581,-3.4312 6.79786,-29.4653 2.22439,-9.60039 4.08911,-17.76682 4.14383,-18.14763 0.13232,-0.9206 0.12915,-2.59479 -0.006,-3.2005 -0.24704,-1.10683 -0.80441,-1.7157 -1.76927,-1.93271 -0.16462,-0.037 -0.18988,-0.0843 -0.23106,-0.4324 -0.065,-0.54946 0.0717,-1.38862 0.31077,-1.90737 0.35001,-0.7595 0.31856,-0.74483 2.11703,-0.9876 5.24849,-0.70847 8.95479,-1.33367 10.57783,-1.78432 0.35781,-0.0993 0.67218,-0.15527 0.69861,-0.12427 0.0264,0.031 0.005,0.74509 -0.0486,1.58688 -0.0531,0.84179 -0.088,1.70994 -0.0775,1.92922 l 0.0191,0.39869 0.35885,-0.51196 c 0.47151,-0.67275 1.5171,-1.73204 2.13867,-2.16669 2.86152,-2.001 6.89983,-2.00071 10.04566,7.3e-4 4.56288,2.90299 6.33374,9.40537 4.7796,17.55018 -0.88877,4.65777 -2.94049,9.47095 -5.73559,13.45522 -1.39845,1.99343 -3.27867,4.0898 -4.89297,5.45544 -2.47822,2.09648 -5.15774,3.50404 -7.69632,4.04288 -1.61202,0.34217 -4.3806,0.42241 -5.31179,0.15396 -0.45721,-0.13181 -1.02168,-0.43754 -1.6989,-0.92015 -0.27723,-0.19754 -0.53407,-0.35918 -0.57081,-0.35918 -0.0954,0 -0.0967,0.005 -1.35161,5.09499 -1.0074,4.08597 -1.14712,4.72334 -1.20645,5.50259 -0.11281,1.48199 0.0512,2.63515 0.47538,3.34127 0.23681,0.39424 0.50416,0.5922 1.01506,0.75153 l 0.3556,0.11089 0.0288,0.34309 c 0.0768,0.91614 -0.20959,2.00912 -0.65794,2.51132 l -0.17893,0.20042 -1.36631,-0.0122 c -0.75145,-0.007 -3.4936,-0.042 -6.09364,-0.0785 z m 14.26784,-20.35284 c 3.56896,-0.88868 6.8823,-6.80068 9.12905,-16.28903 0.62008,-2.61856 1.14966,-5.67127 1.42242,-8.19923 0.16729,-1.55023 0.17104,-3.99258 0.007,-4.61919 -0.43094,-1.64733 -1.23024,-2.80306 -2.31509,-3.34749 -0.48143,-0.2416 -0.59602,-0.26895 -1.23162,-0.29392 -2.11133,-0.083 -3.53904,0.86028 -4.56068,3.01309 -0.4259,0.89746 -0.72355,1.80368 -1.32538,4.03526 -1.40998,5.22821 -4.41883,18.27603 -4.90726,21.28027 -0.15031,0.92451 -0.17395,1.99363 -0.057,2.57648 0.19441,0.96856 0.80278,1.6682 1.62948,1.87389 0.42424,0.10555 1.7359,0.0877 2.20895,-0.0301 z m 257.77974,20.35284 c -4.151,-0.0582 -4.7421,-0.0803 -4.8482,-0.18131 -0.066,-0.0633 -0.1207,-0.17473 -0.1207,-0.24772 0,-0.14971 0.4736,-2.20517 6.5191,-28.29133 2.3764,-10.2542 4.3687,-18.97818 4.4273,-19.38663 0.1529,-1.06475 0.1023,-2.75705 -0.1017,-3.40282 -0.082,-0.26055 -0.2357,-0.60492 -0.3408,-0.76526 -0.2373,-0.36207 -0.7755,-0.75229 -1.1174,-0.81001 -0.3992,-0.0674 -0.4397,-0.12118 -0.4699,-0.62442 -0.074,-1.22812 0.5364,-2.61052 1.1521,-2.61052 0.2623,0 4.5439,-0.59694 6.5633,-0.91504 2.1691,-0.34168 4.2082,-0.73047 5.1716,-0.98605 0.4342,-0.11517 0.8054,-0.19247 0.825,-0.17177 0.02,0.0207 -0.014,0.88091 -0.075,1.9116 -0.061,1.03069 -0.089,1.89871 -0.062,1.92894 0.027,0.0302 0.2021,-0.16655 0.3891,-0.43729 1.2222,-1.76946 3.0679,-3.00423 5.208,-3.48417 0.7164,-0.16067 2.2399,-0.21737 3.002,-0.11173 3.462,0.47984 6.2006,2.56793 7.7987,5.94605 0.6815,1.44065 1.0689,2.8214 1.36,4.84665 0.1424,0.99082 0.1196,4.6798 -0.036,5.90345 -0.4741,3.71733 -1.5147,7.21154 -3.1927,10.72085 -3.552,7.42837 -9.2379,12.92308 -14.8815,14.38103 -1.2393,0.32015 -2.0962,0.41687 -3.8153,0.4306 -2.0967,0.0167 -2.4409,-0.0755 -3.7436,-1.00326 -0.581,-0.41375 -0.6705,-0.45492 -0.738,-0.33955 -0.021,0.0361 -0.5656,2.20501 -1.2099,4.8197 -1.2609,5.11721 -1.3675,5.69635 -1.2881,6.99436 0.098,1.60831 0.5695,2.53238 1.4142,2.77352 0.5134,0.14657 0.5138,0.14741 0.4761,1.01426 -0.039,0.89641 -0.1988,1.41961 -0.5757,1.88457 l -0.2463,0.30397 -1.3576,-0.0122 c -0.7467,-0.007 -3.485,-0.042 -6.085,-0.0785 z m 14.2538,-20.35462 c 3.3545,-0.90695 6.3822,-5.91416 8.6189,-14.25393 1.3045,-4.86353 2.2286,-10.89415 2.0874,-13.62157 -0.1116,-2.15621 -1.0858,-3.91532 -2.571,-4.64252 -0.3504,-0.17159 -0.5168,-0.20384 -1.1678,-0.22639 -2.0886,-0.0724 -3.5129,0.86466 -4.5207,2.97398 -0.5385,1.12714 -1.2735,3.66032 -2.4425,8.41787 -1.4149,5.75819 -3.5912,15.51972 -3.841,17.22782 -0.1233,0.84332 -0.055,2.28717 0.1322,2.791 0.2496,0.672 0.8292,1.19638 1.5095,1.36565 0.4386,0.10912 1.7436,0.0902 2.195,-0.0319 z m -167.36758,4.30736 c -1.99764,-0.48219 -3.45464,-2.06695 -4.60689,-5.0109 -0.69024,-1.76352 -1.08637,-3.22468 -2.58484,-9.5345 -0.64256,-2.70575 -1.19986,-5.00349 -1.23841,-5.10608 -0.0835,-0.22229 -0.66515,-0.57681 -0.76786,-0.46806 -0.0371,0.0394 -0.98492,4.25753 -2.10615,9.37375 -1.12122,5.11621 -2.05784,9.35521 -2.08139,9.42 -0.0388,0.10668 -0.43596,0.1178 -4.2066,0.1178 -2.46363,0 -4.17986,-0.0274 -4.20309,-0.0671 -0.0475,-0.0812 9.46477,-45.50887 10.20979,-48.75891 0.60466,-2.63778 0.7212,-3.4886 0.60717,-4.43239 -0.15806,-1.30822 -0.62265,-1.92816 -1.6506,-2.20251 -0.2504,-0.0668 -0.30183,-0.11802 -0.4238,-0.42181 -0.40925,-1.01908 -0.29899,-1.88438 0.32164,-2.52439 0.21012,-0.21668 0.33803,-0.28622 0.57055,-0.31023 1.05741,-0.10916 11.10787,-0.74667 11.19768,-0.71028 0.155,0.0628 0.2015,0.32379 0.11695,0.65672 -0.41888,1.64958 -6.70417,32.10147 -6.7826,32.86136 -0.0172,0.16655 0.005,0.21865 0.0948,0.21865 0.0645,0 0.90303,-0.78445 1.86334,-1.74322 3.0342,-3.02935 6.47333,-6.53842 6.54317,-6.67623 0.0574,-0.11332 -0.0161,-0.19406 -0.50161,-0.55154 -1.1554,-0.85057 -1.81627,-1.79523 -1.89467,-2.70825 -0.0493,-0.57365 0.0584,-0.88915 0.42531,-1.24631 0.56403,-0.54907 1.72036,-0.78253 3.48847,-0.70433 0.67059,0.0297 2.43432,-0.008 4.72736,-0.10103 5.02006,-0.20359 4.88436,-0.20045 4.91206,-0.11369 0.0133,0.0417 -3.206,3.31823 -7.15403,7.28112 -3.94805,3.96288 -7.17825,7.24663 -7.17825,7.29722 0,0.13392 0.88159,3.38375 1.41227,5.20615 0.94297,3.23815 2.1736,7.06146 3.2608,10.1306 0.85286,2.40759 0.91497,2.54986 1.30666,2.99209 0.58829,0.66418 1.10933,0.87066 2.19713,0.87066 l 0.57867,0 0.6429,-0.45341 c 0.3536,-0.24937 0.95541,-0.72049 1.3374,-1.04694 0.78849,-0.67388 0.91848,-0.759 1.15927,-0.759 0.20724,0 0.52047,0.37344 0.77908,0.92882 0.14622,0.31403 0.16961,0.44088 0.13122,0.71125 -0.1139,0.80208 -0.73814,2.28301 -1.33627,3.17015 -0.88557,1.31346 -2.72515,2.95859 -4.0371,3.61039 -1.37551,0.68338 -3.95502,1.0879 -5.12949,0.80441 z m -269.07063,-0.1917 c -2.19133,-0.19742 -3.29464,-0.40412 -4.71273,-0.8829 -7.25281,-2.44868 -11.90499,-9.24552 -12.63739,-18.46322 -0.29611,-3.72681 0.0248,-8.37202 0.89613,-12.97257 2.54366,-13.42991 9.23435,-24.10836 18.01924,-28.759 3.36324,-1.78048 6.7967,-2.61692 10.74265,-2.6171 1.60146,-7e-5 2.28965,0.10995 3.44092,0.55006 1.51257,0.57823 3.267,1.65957 4.36571,2.69083 0.29283,0.27485 0.73782,0.59966 1.03161,0.753 0.46678,0.24362 0.57042,0.26965 1.07378,0.26965 0.8058,0 1.25982,-0.25185 2.24473,-1.24516 0.41396,-0.4175 0.79301,-0.75844 0.84232,-0.75765 0.23175,0.004 2.09407,0.21997 2.19992,0.25545 0.0659,0.0221 0.13577,0.0839 0.15518,0.13731 0.0194,0.0534 -0.72079,3.52044 -1.64488,7.7045 -0.9241,4.18406 -1.6995,7.73106 -1.72313,7.88224 -0.0565,0.36174 -0.3815,0.74215 -0.76671,0.89751 -0.25541,0.10302 -0.44638,0.11718 -1.08373,0.0804 -0.95536,-0.0552 -1.36253,-0.19449 -1.74324,-0.59656 -0.36165,-0.38192 -0.48283,-0.7677 -0.58389,-1.85875 -0.30095,-3.24921 -0.98863,-6.25241 -1.8963,-8.28138 -0.50199,-1.12213 -0.92852,-1.79232 -1.54801,-2.43228 -1.06093,-1.096 -2.2454,-1.5997 -3.76683,-1.60184 -1.402,-0.002 -2.69461,0.33691 -4.14076,1.0856 -2.49639,1.2924 -4.704,3.56291 -6.88972,7.086 -4.32152,6.96572 -7.48399,17.83244 -8.1948,28.15854 -0.10452,1.51835 -0.10522,5.68427 -10e-4,7.03311 0.45313,5.87505 2.04851,9.54306 4.72626,10.86639 0.65903,0.32569 1.30003,0.49594 2.19354,0.58263 0.90101,0.0874 1.50444,4.8e-4 2.43787,-0.35084 1.09313,-0.41153 2.26409,-1.23152 2.89852,-2.02974 0.36223,-0.45574 1.26831,-1.75221 1.68922,-2.41703 1.3618,-2.15093 2.57192,-5.93737 3.2398,-10.1372 0.41583,-2.61486 0.43509,-3.68325 0.0837,-4.63907 -0.36817,-1.00131 -1.31186,-2.24688 -2.10258,-2.77518 -0.39382,-0.26312 -0.46014,-0.44623 -0.46014,-1.27048 0,-0.74121 0.18301,-1.58389 0.46443,-2.13846 l 0.19118,-0.37675 3.14007,0.0364 c 1.72704,0.02 4.94358,0.0364 7.14786,0.0364 l 4.00778,0 0.28677,-0.20042 c 0.15772,-0.11024 0.38184,-0.20043 0.49803,-0.20043 0.25152,0 0.75815,0.25701 0.7572,0.38411 -6.9e-4,0.0493 -0.11141,0.23676 -0.24676,0.41659 -1.91175,2.54004 -4.76279,11.43246 -5.27716,16.45955 -0.21302,2.08191 0.1327,2.85519 1.27649,2.85519 l 0.40118,0 -0.0478,0.3805 c -0.0263,0.20927 -0.11072,0.57824 -0.18764,0.81992 -0.65102,2.04564 -2.24841,3.87849 -4.94154,5.66992 -2.86705,1.90713 -6.27557,3.0952 -10.39453,3.62312 -2.0593,0.26394 -4.37731,0.38663 -5.4606,0.28903 z m 297.18761,-0.0313 c -1.8147,-0.17586 -3.0231,-0.43161 -4.4516,-0.94209 -2.629,-0.93956 -4.7462,-2.32641 -6.67985,-4.37557 -1.33714,-1.41701 -2.34523,-2.88576 -3.24849,-4.7329 -2.23529,-4.57102 -2.94654,-9.8972 -2.26881,-16.98973 1.13252,-11.85184 5.90789,-22.98881 12.65295,-29.50871 4.1041,-3.96713 8.405,-6.15475 13.6381,-6.93699 1.0502,-0.15698 4.2832,-0.22615 4.9847,-0.10665 1.8302,0.3118 4.4223,1.66594 5.9811,3.12463 0.6387,0.59765 1.0324,0.83955 1.6294,1.00104 0.9401,0.25435 1.6168,-0.0342 2.7628,-1.17794 0.4185,-0.41759 0.8142,-0.75861 0.8794,-0.75782 0.065,7.3e-4 0.5614,0.049 1.1027,0.10718 0.9098,0.0977 1.2588,0.18404 1.2588,0.31126 0,0.0277 -0.7431,3.42921 -1.6512,7.55894 -0.9082,4.12974 -1.6854,7.69029 -1.7272,7.91235 -0.1762,0.93582 -0.9238,1.24722 -2.439,1.01586 -0.5742,-0.0877 -0.9138,-0.26341 -1.2352,-0.63914 -0.3226,-0.37707 -0.4391,-0.79994 -0.5363,-1.94657 -0.111,-1.30957 -0.4437,-3.34556 -0.773,-4.7309 -1.2078,-5.08017 -3.2161,-7.40396 -6.3989,-7.40396 -2.0862,0 -4.1372,0.78784 -6.1272,2.3537 -0.9019,0.70963 -2.5354,2.41676 -3.3554,3.50653 -4.9147,6.53178 -8.6684,17.90953 -9.6803,29.34179 -0.1444,1.63129 -0.2078,6.19534 -0.1069,7.68906 0.54,7.98884 2.9547,11.88711 7.3917,11.93291 0.756,0.008 0.9385,-0.0155 1.4761,-0.18873 1.9776,-0.63706 2.983,-1.46155 4.4785,-3.67236 1.1981,-1.77131 1.8223,-3.0921 2.5655,-5.42892 1.1561,-3.63542 1.9018,-8.5092 1.5145,-9.89966 -0.061,-0.21772 -0.2318,-0.64183 -0.3804,-0.94247 -0.4412,-0.89272 -0.9492,-1.48696 -2.056,-2.40511 -0.2058,-0.1708 -0.2221,-0.2187 -0.2595,-0.76526 -0.027,-0.39173 0,-0.78242 0.069,-1.19061 0.1119,-0.62317 0.4789,-1.57963 0.6295,-1.64064 0.046,-0.0188 1.7429,-0.006 3.7701,0.0287 2.0272,0.0346 5.1853,0.0644 7.0179,0.0662 3.4811,0.003 3.6317,-0.009 3.8709,-0.31339 0.1287,-0.1638 0.5065,-0.1529 0.8351,0.0241 0.3629,0.19556 0.3916,0.27115 0.1892,0.49892 -0.2725,0.30661 -0.8303,1.25124 -1.2441,2.10674 -1.473,3.04572 -3.1781,8.5631 -3.9025,12.62773 -0.2243,1.25817 -0.2993,2.09828 -0.2746,3.07421 0.02,0.79625 0.043,0.95202 0.1657,1.12517 0.2707,0.38225 0.4849,0.49505 0.9987,0.52571 l 0.4808,0.0287 0,0.23011 c 0,0.40178 -0.2738,1.29265 -0.6061,1.97218 -1.5359,3.14059 -5.9124,6.15525 -10.8844,7.49755 -3.1312,0.84531 -7.4386,1.28857 -10.0564,1.03487 z m -267.54981,-0.0397 c -1.11003,-0.16389 -2.39992,-0.6976 -3.33125,-1.37838 -0.66293,-0.48457 -1.62379,-1.49763 -2.02504,-2.13504 -0.43394,-0.68934 -0.80857,-1.67202 -0.99387,-2.60698 -0.17543,-0.88516 -0.21109,-2.66442 -0.0708,-3.53422 0.0452,-0.28059 1.04579,-4.60845 2.22342,-9.61746 l 2.14117,-9.10729 0.58116,-3.55696 c 0.31964,-1.95632 0.58116,-3.71407 0.58116,-3.9061 0,-0.63295 -0.5851,-1.33785 -1.52747,-1.84023 -0.50783,-0.27073 -0.76023,-0.61433 -0.80391,-1.0944 -0.0288,-0.31634 9.2e-4,-0.43355 0.22521,-0.88974 0.33594,-0.68315 0.54447,-0.9706 0.81575,-1.12447 0.19567,-0.11098 0.48709,-0.1258 2.56715,-0.13052 1.84865,-0.004 2.52045,-0.0322 3.1667,-0.13215 2.4078,-0.37228 4.44547,-1.01435 6.29097,-1.98229 0.98863,-0.51853 1.27348,-0.5787 1.44334,-0.30492 0.0951,0.15327 0.0755,0.3003 -0.23563,1.76739 -0.619,2.91891 -3.52708,15.58236 -6.04128,26.30723 -1.44827,6.17791 -1.36173,5.73763 -1.33229,6.77803 0.022,0.77708 0.0469,0.9257 0.22327,1.33312 0.24778,0.57232 0.7786,1.10473 1.33328,1.33729 0.31359,0.13148 0.53382,0.16658 1.05222,0.16774 0.57968,0.001 0.74239,-0.0301 1.40484,-0.27103 2.30917,-0.83981 3.95868,-2.35193 4.94698,-4.53494 0.30628,-0.67653 0.50088,-1.43992 2.71262,-10.64077 2.98458,-12.4159 3.30391,-14.07893 2.89216,-15.06194 -0.18757,-0.44783 -0.45367,-0.68868 -0.95587,-0.86517 -0.94096,-0.33069 -1.4307,-1.13261 -1.26385,-2.06943 0.0832,-0.46702 0.36692,-1.11707 0.60165,-1.37838 0.37099,-0.41299 0.42915,-0.42374 2.42001,-0.44721 1.01069,-0.0119 2.11712,-0.0585 2.45873,-0.10358 2.72583,-0.35951 5.38344,-1.0609 7.75123,-2.0457 0.93719,-0.38979 1.34447,-0.45082 1.47614,-0.22118 0.0427,0.0744 -1.11919,5.279 -3.6363,16.28914 -2.03444,8.8989 -3.75835,16.39299 -3.83089,16.65354 -0.22892,0.82212 -0.62154,2.74506 -0.61996,3.03641 0.002,0.39545 0.22549,0.86881 0.49482,1.04871 0.19854,0.13262 0.30026,0.14744 0.7804,0.11369 0.30365,-0.0214 0.73843,-0.0901 0.96617,-0.15288 0.60493,-0.16664 1.46213,-0.61999 1.9248,-1.01797 0.48221,-0.41479 0.7903,-0.48766 1.12477,-0.26606 0.2789,0.18479 0.35932,0.47102 0.41335,1.47102 0.0645,1.19305 10e-4,1.37861 -0.72474,2.12278 -2.30479,2.36295 -5.06259,3.74957 -7.74653,3.89495 -1.35863,0.0736 -2.50592,-0.13417 -3.84704,-0.69665 -1.51422,-0.63508 -2.56786,-2.12149 -3.01388,-4.25183 -0.065,-0.31066 -0.14985,-0.56483 -0.18846,-0.56483 -0.0386,0 -0.42797,0.36323 -0.86525,0.80717 -2.64858,2.68897 -5.82126,4.40873 -8.71245,4.72265 -1.06303,0.11541 -2.72835,0.15637 -3.24669,0.0798 z m 362.25011,0.0315 c -1.7053,-0.20001 -2.95,-0.69386 -4.1447,-1.64457 -1.5623,-1.24324 -2.4875,-2.84375 -2.7927,-4.83078 -0.1189,-0.77417 -0.1333,-2.37759 -0.028,-3.12396 0.041,-0.28828 1.048,-4.64015 2.2386,-9.67083 l 2.1647,-9.1467 0.5909,-3.61283 c 0.325,-1.98705 0.5907,-3.69249 0.5905,-3.78986 0,-0.58923 -0.5147,-1.27347 -1.3102,-1.74609 -0.8312,-0.4938 -1.0365,-0.76382 -1.0348,-1.36083 0,-0.54716 0.621,-1.67125 1.0687,-1.939 0.095,-0.0568 0.8799,-0.0839 2.5189,-0.0869 2.1206,-0.004 2.4904,-0.0224 3.3817,-0.16945 2.4646,-0.40665 4.8206,-1.18531 6.4581,-2.13443 0.5118,-0.2966 0.8128,-0.35084 1.0273,-0.18514 0.1052,0.0812 0.1205,0.16103 0.087,0.45552 -0.088,0.77247 -2.4897,11.30126 -6.1586,26.99541 -0.7825,3.3471 -1.4574,6.38839 -1.4998,6.75842 -0.1848,1.61224 0.3156,2.75511 1.4557,3.32418 0.4143,0.20682 0.5228,0.22914 1.1146,0.22915 0.5264,1e-5 0.7753,-0.0401 1.2626,-0.20325 1.7666,-0.59154 3.264,-1.68974 4.3321,-3.17721 0.1901,-0.26468 0.5169,-0.842 0.7262,-1.28294 0.3787,-0.79792 0.3917,-0.84807 2.7547,-10.65538 2.0293,-8.42244 2.4247,-10.1505 2.7224,-11.89719 0.1915,-1.12393 0.3482,-2.2019 0.3482,-2.39549 0,-0.84784 -0.3959,-1.52992 -0.9829,-1.69333 -0.6041,-0.16817 -1.127,-0.60451 -1.3253,-1.1061 -0.3085,-0.77976 0.132,-2.22883 0.8125,-2.67299 0.2171,-0.14169 0.3543,-0.15289 2.1921,-0.17912 1.9208,-0.0274 2.7033,-0.0978 4.2035,-0.37797 2.0819,-0.38886 4.459,-1.10911 6.2624,-1.8975 0.6306,-0.27568 1.0179,-0.30713 1.1448,-0.093 0.054,0.0908 -0.8227,4.03728 -3.5696,16.07049 -2.0026,8.77255 -3.7319,16.29447 -3.8428,16.71536 -0.2509,0.95183 -0.6849,2.99597 -0.6849,3.22577 0,0.27523 0.3242,0.88409 0.5437,1.02102 0.6187,0.38593 2.586,-0.16669 3.5522,-0.99781 0.4696,-0.40397 0.6075,-0.47946 0.8754,-0.47946 0.1548,0 0.2843,0.0696 0.4445,0.23874 0.1902,0.20084 0.2345,0.31367 0.2791,0.7106 0.09,0.80322 0.06,1.67969 -0.07,2.01956 -0.1787,0.46714 -1.4969,1.6983 -2.7877,2.6036 -2.0982,1.47163 -4.2992,2.16743 -6.4949,2.05326 -0.9063,-0.0471 -1.4007,-0.14501 -2.3119,-0.45772 -1.8844,-0.64667 -3.0084,-1.96065 -3.552,-4.15213 -0.077,-0.31096 -0.1402,-0.62582 -0.1402,-0.6997 0,-0.32945 -0.2215,-0.2064 -0.9351,0.51946 -2.4475,2.48957 -5.2042,4.10666 -7.9675,4.67379 -0.2088,0.0428 -0.8323,0.10749 -1.3857,0.14366 -0.5534,0.0362 -1.2056,0.0802 -1.4493,0.0979 -0.2437,0.0177 -0.5518,0.0194 -0.6846,0.004 z m -324.17225,-0.11035 c -2.13878,-0.2474 -3.84823,-1.14656 -5.46633,-2.87526 -0.81548,-0.87121 -1.45098,-1.81906 -2.0004,-2.98356 -0.7781,-1.6492 -1.1356,-3.07641 -1.32211,-5.27821 -0.35649,-4.2083 0.5931,-9.90784 2.50843,-15.05588 1.78403,-4.79516 5.23906,-9.78793 8.76276,-12.66286 0.81671,-0.66633 2.38371,-1.74239 3.19865,-2.19649 3.2218,-1.79527 6.35406,-2.34979 9.08661,-1.60866 2.12983,0.57765 3.57152,1.41382 5.09294,2.95385 0.74016,0.74922 0.79135,0.78699 0.98654,0.72787 0.47148,-0.1428 1.91715,-0.84321 4.18279,-2.0265 2.38747,-1.24692 2.41201,-1.25769 2.86403,-1.25659 0.66038,0.002 0.67019,0.0142 0.57763,0.74065 -0.0606,0.47564 -6.98836,29.63751 -7.89212,33.22127 -0.34309,1.36049 -0.23242,2.03469 0.41257,2.51342 0.423,0.31396 0.92295,0.301 1.77998,-0.0461 0.77564,-0.31417 1.29217,-0.63557 1.82757,-1.13718 0.56496,-0.52932 0.77692,-0.51647 1.01912,0.0618 0.34054,0.81301 0.42318,1.52907 0.24827,2.15109 -0.12883,0.45815 -0.43067,0.83044 -1.19248,1.47079 -1.96758,1.6539 -4.1049,2.78101 -6.06602,3.19893 -0.89757,0.19127 -2.6931,0.17326 -3.4156,-0.0343 -2.24897,-0.64597 -3.77371,-2.18454 -4.40329,-4.44322 -0.081,-0.29061 -0.1715,-0.52839 -0.20112,-0.52839 -0.0296,0 -0.23104,0.21184 -0.44762,0.47076 -1.36963,1.63733 -3.93299,3.42763 -5.88533,4.11045 -1.31031,0.45827 -2.98252,0.65961 -4.25547,0.51235 z m 5.8328,-5.81727 c 1.70191,-0.45968 3.26566,-1.99495 4.35035,-4.27115 0.47268,-0.9919 0.99764,-2.87634 2.42553,-8.70696 3.93004,-16.04781 3.85311,-15.71914 3.88837,-16.61349 0.0204,-0.51785 9.2e-4,-0.98801 -0.0512,-1.239 -0.1109,-0.53358 -0.45625,-1.21298 -0.72772,-1.43166 -0.60245,-0.48527 -1.82349,-0.66136 -2.79321,-0.4028 -1.23412,0.32906 -2.07608,0.88786 -3.19386,2.11975 -1.42086,1.56593 -2.59355,3.40506 -3.74266,5.86963 -1.22129,2.61939 -1.73461,4.16402 -2.87009,8.63652 -0.61001,2.40276 -1.08283,4.86716 -1.33745,6.9711 -0.24487,2.02325 -0.24828,4.85158 -0.007,6.04828 0.29321,1.45614 1.17823,2.5593 2.44987,3.05373 0.36155,0.14057 1.01419,0.1268 1.60935,-0.034 z m 46.80945,5.85427 c -2.37698,-0.25081 -4.0428,-1.09465 -5.72804,-2.90159 -2.35026,-2.51997 -3.41712,-5.68654 -3.41518,-10.13667 10e-4,-3.34253 0.65154,-7.20912 1.85492,-11.03284 0.61045,-1.9397 0.86923,-2.62972 1.52268,-4.06005 1.90315,-4.16576 4.74898,-8.05422 7.72798,-10.55929 2.27004,-1.90889 5.11383,-3.44548 7.42335,-4.01106 1.93024,-0.4727 3.70648,-0.42578 5.60117,0.14797 1.88464,0.5707 3.20053,1.38516 4.7217,2.92244 l 0.67265,0.67977 0.36832,-0.1342 c 0.59725,-0.21762 1.99618,-0.90281 4.27921,-2.09597 2.12586,-1.111 2.14429,-1.11891 2.60898,-1.11891 0.61179,0 0.64552,0.045 0.55345,0.73759 -0.0611,0.45995 -6.1985,26.31737 -7.59563,32.00129 -0.49528,2.01495 -0.55767,2.49475 -0.3977,3.05863 0.1395,0.49174 0.7417,0.93317 1.27503,0.93463 0.57214,10e-4 2.20254,-0.81551 2.83681,-1.42167 0.64515,-0.61657 0.82831,-0.55287 1.15515,0.40173 0.13414,0.39178 0.18986,0.70149 0.19673,1.09334 0.0145,0.83457 -0.19613,1.23214 -1.04931,1.97968 -4.54225,3.97979 -9.54824,4.67545 -12.52644,1.74075 -0.63772,-0.62841 -1.18813,-1.5899 -1.53348,-2.67881 -0.0991,-0.3124 -0.19539,-0.59443 -0.21402,-0.62675 -0.0186,-0.0323 -0.44246,0.36174 -0.94183,0.87567 -2.17379,2.23716 -4.54402,3.62123 -6.953,4.06014 -0.62434,0.11375 -1.97599,0.19351 -2.4435,0.14418 z m 5.48209,-5.8328 c 1.96103,-0.51597 3.77256,-2.48077 4.76188,-5.16477 0.44048,-1.19502 0.87912,-2.91026 3.87677,-15.15946 l 2.08679,-8.5272 0.005,-0.94746 c 0.006,-1.07646 -0.0908,-1.5286 -0.4493,-2.10018 -0.4757,-0.75845 -1.78679,-1.10535 -3.0515,-0.80741 -0.5867,0.13821 -1.45576,0.54994 -2.02319,0.95851 -0.47215,0.33998 -1.66929,1.6191 -2.30162,2.45925 -1.50512,1.99978 -2.97118,4.8702 -4.0339,7.89798 -0.68152,1.9417 -1.85693,6.48365 -2.34559,9.06365 -0.91311,4.82101 -0.95515,8.79447 -0.11073,10.4649 0.41815,0.82715 1.05939,1.43374 1.90269,1.79985 0.49273,0.21391 1.03068,0.23384 1.68249,0.0623 z m 67.67125,5.83216 c -1.85699,-0.2002 -3.16609,-0.70455 -4.4707,-1.72241 -2.46168,-1.92061 -4.00204,-4.75769 -4.5059,-8.29913 -0.14776,-1.03843 -0.20449,-3.78691 -0.10439,-5.05678 0.32509,-4.12448 1.39566,-8.55214 2.98693,-12.3535 1.02661,-2.45243 2.6605,-5.21042 4.4327,-7.48233 0.78831,-1.01056 2.6429,-2.96498 3.49284,-3.68085 1.28796,-1.08477 3.11872,-2.31906 4.27613,-2.88292 2.04358,-0.99559 3.72687,-1.4553 5.59002,-1.52664 1.18989,-0.0456 1.96136,0.0603 3.28233,0.45034 1.82828,0.53987 3.26354,1.44146 4.83539,3.03743 l 0.56086,0.56947 0.28723,-0.10703 c 0.63308,-0.23588 1.87871,-0.84196 4.13998,-2.01438 2.28818,-1.18637 2.38958,-1.23099 2.79501,-1.22992 0.60169,0.002 0.6229,0.0267 0.57096,0.67559 -0.028,0.34979 -1.13243,5.10734 -3.08507,13.2897 -2.90688,12.18098 -4.57286,19.11855 -4.837,20.14239 -0.18249,0.70744 -0.16991,1.50113 0.0302,1.90067 0.18288,0.36523 0.7331,0.72309 1.11177,0.72309 0.70943,0 2.16,-0.71131 2.95894,-1.45096 0.62157,-0.57545 0.79626,-0.508 1.11526,0.43061 0.33255,0.97844 0.22952,1.98458 -0.25999,2.53886 -0.28169,0.31896 -1.35101,1.18457 -2.22352,1.79991 -1.60631,1.13285 -3.26763,1.86623 -4.89241,2.15975 -2.33152,0.42119 -4.47961,-0.17223 -5.96692,-1.6484 -0.67504,-0.66997 -1.28851,-1.73674 -1.58782,-2.761 -0.08,-0.27401 -0.16416,-0.52997 -0.18689,-0.5688 -0.0228,-0.0388 -0.43438,0.33358 -0.91483,0.82757 -2.19416,2.25607 -4.58478,3.65246 -7.02117,4.10115 -0.59643,0.10984 -1.95278,0.18781 -2.4099,0.13852 z m 5.52374,-5.82511 c 1.66767,-0.45463 3.14776,-1.88259 4.26595,-4.11568 0.66953,-1.33711 0.91264,-2.25648 4.67339,-17.67324 1.58368,-6.49215 1.74503,-7.2088 1.77222,-7.87126 0.0635,-1.54757 -0.36692,-2.51824 -1.2774,-2.88087 -1.22916,-0.48956 -2.55574,-0.29498 -3.94918,0.57927 -1.15897,0.72714 -2.90602,2.84992 -4.17351,5.07112 -1.43992,2.52338 -2.49759,5.21463 -3.45145,8.78228 -1.36627,5.11018 -1.91986,8.20688 -2.07165,11.58825 -0.0537,1.19533 0.0606,2.93721 0.24185,3.68537 0.31492,1.30047 1.13229,2.31579 2.24962,2.79449 0.41813,0.17915 1.14807,0.19623 1.72016,0.0403 z m 123.37952,5.75309 c -0.023,-0.0642 0.6299,-3.48327 1.4518,-7.59795 1.9506,-9.76632 2.2597,-11.40949 2.8332,-15.06096 0.6467,-4.11772 0.8261,-5.84934 0.8305,-8.01703 0,-1.95619 -0.051,-2.2848 -0.4688,-2.78702 -0.2872,-0.3455 -0.5456,-0.44792 -1.3268,-0.52598 -0.4208,-0.042 -0.7348,-0.11443 -0.8771,-0.20223 -0.2643,-0.16298 -0.5073,-0.52356 -0.6012,-0.89204 -0.1008,-0.39525 -0.4299,-2.85263 -0.388,-2.89689 0.02,-0.0209 0.4955,-0.11396 1.0571,-0.20678 3.5597,-0.58831 6.1648,-1.59618 9.3975,-3.63573 1.3235,-0.83499 1.5464,-0.90291 1.8233,-0.5554 0.5628,0.70634 0.8562,3.23719 0.7862,6.78254 -0.056,2.8264 -0.2937,5.56585 -0.7031,8.09723 -0.1824,1.12754 -0.2073,1.45031 -0.1119,1.45031 0.1131,0 0.1936,-0.1806 0.796,-1.78561 2.4565,-6.5449 4.1995,-9.91988 6.3184,-12.23406 0.8067,-0.88112 1.5655,-1.48884 2.3833,-1.90896 1.117,-0.57375 2.4022,-0.76433 3.3717,-0.49998 1.7182,0.46849 3.2374,2.21682 3.7903,4.36186 0.2006,0.77869 0.2112,2.45618 0.021,3.39379 -0.4446,2.19479 -1.5046,3.9583 -2.9472,4.90293 -0.8183,0.53589 -1.2584,0.66731 -2.2346,0.66743 -1.5183,1.5e-4 -2.1249,-0.37799 -3.9382,-2.45485 -0.5162,-0.5912 -0.5761,-0.63752 -0.8248,-0.63752 -0.2361,0 -0.3139,0.0501 -0.6511,0.41943 -1.0733,1.17552 -2.9579,5.82543 -4.9256,12.15272 -0.8415,2.70619 -1.1546,3.91464 -3.0578,11.80536 -1.0441,4.32873 -1.935,7.89505 -1.9798,7.92515 -0.045,0.0301 -2.2641,0.0552 -4.9318,0.0558 -4.385,9.7e-4 -4.8544,-0.0101 -4.8927,-0.11561 z m 40.5226,0.008 c -3.388,-0.50724 -6.5034,-2.32341 -8.6666,-5.05231 -3.3323,-4.20368 -4.6405,-9.92101 -3.8217,-16.70256 0.9208,-7.62674 4.5448,-14.19263 9.8658,-17.87462 4.8079,-3.32694 10.4781,-3.92413 15.0646,-1.58662 1.3982,0.71264 2.431,1.47305 3.5618,2.62237 2.7075,2.75206 4.3268,6.32379 4.9076,10.82492 0.062,0.48102 0.1302,1.61252 0.1514,2.51443 0.1376,5.85476 -1.2584,11.55384 -3.9114,15.96823 -0.9299,1.54715 -1.8362,2.72236 -3.1172,4.04195 -2.7416,2.82428 -5.9767,4.55198 -9.6865,5.17318 -0.9779,0.16374 -3.4579,0.20425 -4.3478,0.071 z m 1.9803,-3.58872 c 1.357,-0.48383 2.7762,-2.10247 3.9791,-4.53839 2.0245,-4.0999 3.8417,-11.17169 4.6633,-18.14763 0.2424,-2.05878 0.3159,-3.15208 0.3152,-4.69325 0,-5.20996 -1.1548,-7.98286 -3.3741,-8.11854 -0.6204,-0.0379 -1.1196,0.0876 -1.7668,0.44437 -0.6156,0.33934 -1.7507,1.56598 -2.3734,2.56479 -2.5879,4.15136 -4.8971,12.57912 -5.851,21.35444 -0.1659,1.52625 -0.1665,4.54235 0,5.79412 0.4228,3.19982 1.4047,5.07731 2.8575,5.46405 0.3642,0.0969 1.0956,0.0385 1.5512,-0.12396 z m -264.85884,3.52134 c -0.91772,-0.18436 -1.62585,-0.48504 -2.40579,-1.02154 -0.98161,-0.67522 -1.41697,-1.27971 -1.85477,-2.57536 -0.38786,-1.14784 -0.4847,-1.87572 -0.48711,-3.66113 -0.002,-1.73346 0.0717,-2.4671 0.40098,-3.97207 0.0877,-0.40085 2.43003,-10.19073 5.20518,-21.75529 2.81481,-11.72981 5.08137,-21.31585 5.12634,-21.68098 0.23872,-1.93824 -0.3442,-3.39021 -1.50902,-3.75876 -0.16089,-0.0509 -0.32597,-0.13511 -0.36684,-0.18711 -0.13022,-0.16569 -0.20086,-1.086 -0.12948,-1.68652 0.075,-0.63052 0.39427,-1.41498 0.64197,-1.57715 0.11358,-0.0744 1.69834,-0.1705 6.51921,-0.39551 3.50303,-0.1635 6.41477,-0.27879 6.47052,-0.2562 0.0558,0.0226 0.1198,0.11863 0.14233,0.2134 0.0337,0.14185 -7.57224,32.82384 -11.85468,50.93835 -0.69604,2.94424 -0.82149,3.55949 -0.79205,3.88441 0.0423,0.46687 0.29636,0.95288 0.64456,1.23309 0.22216,0.17878 0.31015,0.20251 0.74035,0.19968 0.43678,-0.003 0.55001,-0.0366 1.07483,-0.31958 0.96107,-0.51831 1.49175,-0.9425 2.04772,-1.63683 0.18444,-0.23033 0.25504,-0.2697 0.44847,-0.2501 0.21405,0.0217 0.24004,0.0544 0.38467,0.48406 0.0853,0.25343 0.21799,0.78664 0.29484,1.18491 0.16237,0.84142 0.12069,1.33988 -0.16765,2.00503 -0.30125,0.69489 -0.82136,1.17947 -2.41814,2.25291 -1.96152,1.31865 -2.93932,1.78105 -4.62826,2.18872 -1.00686,0.24303 -2.70467,0.315 -3.52818,0.14957 z m 130.85749,0.0577 c -5.35921,-0.45072 -9.14745,-4.08312 -10.59391,-10.15812 -0.42976,-1.80486 -0.6106,-3.32465 -0.66774,-5.61191 -0.0874,-3.49849 0.42571,-6.54995 1.66679,-9.91196 0.40069,-1.08547 1.48768,-3.36524 2.11974,-4.44581 3.55677,-6.08063 8.84829,-10.49009 14.34187,-11.9512 1.41851,-0.37727 2.17551,-0.47318 3.72668,-0.47211 1.95338,0.001 3.11693,0.25048 4.43675,0.94999 1.46088,0.77427 2.6879,2.08393 3.32514,3.54906 0.57205,1.31521 0.76319,2.3901 0.70754,3.97893 -0.0684,1.95307 -0.58276,3.39138 -1.62729,4.55033 -1.0619,1.17822 -2.40914,1.68474 -3.99397,1.50162 -1.45152,-0.16771 -2.52068,-0.80788 -3.20519,-1.91915 -0.35843,-0.58187 -0.53975,-1.23642 -0.58836,-2.12394 -0.0683,-1.24798 0.17658,-2.39043 0.94425,-4.40426 0.44481,-1.16687 0.44994,-1.82926 0.017,-2.18894 -0.49312,-0.40964 -2.05391,0.079 -3.25443,1.01889 -0.52072,0.40767 -1.68427,1.64985 -2.15418,2.29972 -2.17622,3.00969 -4.09247,7.66825 -5.30638,12.90012 -0.64149,2.76485 -0.94742,4.92767 -1.01032,7.14244 -0.14904,5.24921 1.38193,8.7458 4.2924,9.80329 1.01009,0.36701 1.93024,0.33386 3.20352,-0.11542 1.78775,-0.63082 3.69951,-2.04955 5.47769,-4.06501 0.83896,-0.95096 1.06194,-1.0854 1.52975,-0.92235 0.3447,0.12014 0.75824,0.58338 0.89263,0.99993 0.13458,0.41712 0.14079,1.0739 0.0138,1.45421 -0.0525,0.1571 -0.27764,0.58394 -0.50035,0.94852 -0.2227,0.36459 -0.51361,0.85419 -0.64646,1.08799 -0.47819,0.84157 -2.30907,2.58152 -3.89921,3.70559 -1.77838,1.25712 -3.86746,2.03234 -6.17662,2.29206 -0.76565,0.0861 -2.57305,0.14938 -3.07106,0.10749 z"
           style="fill:#aeafaf;stroke:none"
           sodipodi:nodetypes="ccsscccscsccccccssssssscsscccccsccccccccscssscsccccsscccccssccscccccccssccccccccccccccccccsccccccssccscscssccsccccsscccccccsssssscccsccsscccssssssscsscccsccccssscssscsccssscsssccsccscssscccssccccsssssccccccsccccscsccsccccccccccccccccccccccscsccccsscscssscccccscssccscssscscsccscscccccscccsscssccccsccscscccccccccsccscccscssccscscscsccscccccccssccscccsssssssssscssscccsssccscscccsscccsssssccccsscssssssccsscsscsscssccssscssccsscssscscccscsscssccsccscssccsscsssscccscccsscsssscccccccsccccccsccccssccscccccsccscscccssscccsccscccccccccsccccssscsssccccsccssscccccccsssccsssscsssssccscsssssscscccssccc" />
        <path
           inkscape:connector-curvature="0"
           id="path4850"
           d="m 996.28347,260.59208 -0.009,-6.84391 86.95082,0.0587 86.835,0 0,3.40643 0,3.40644 z"
           style="fill:#fcd22c"
           sodipodi:nodetypes="ccccccc" />
        <path
           inkscape:connector-curvature="0"
           id="path4848"
           d="m 909.34223,253.81899 c 0.0251,0.0135 19.59727,0.0243 43.49382,0.0241 l 43.44828,0 0.0186,3.35968 c 0.0101,1.84782 0.003,3.3697 -0.0159,3.38196 l -86.83317,0.0159 z"
           style="fill:#a95fcd"
           sodipodi:nodetypes="csccccc" />
        <path
           inkscape:connector-curvature="0"
           id="path4846"
           d="m 561.92196,257.19555 0,-3.42085 173.70874,0.0136 c 130.42434,0.0102 173.72511,0.0344 173.77436,0.0971 0.0399,0.0508 0.0586,1.3776 0.0476,3.39126 l -0.0179,3.30776 -173.75641,0.016 -173.75639,0.016 0,-3.42085 z m 521.29794,3.37678 c -0.025,-0.0267 -0.046,-1.55172 -0.046,-3.3889 l 0,-3.3403 43.4434,-0.0183 43.4434,-0.0183 0,3.40724 0,3.40723 -43.3974,0 c -23.8686,0 -43.4181,-0.0219 -43.4434,-0.0486 z"
           style="fill:#fd7d33"
           sodipodi:nodetypes="ccsccccccccscccccscc" />
        <path
           inkscape:connector-curvature="0"
           id="path4842"
           d="m 604.88262,260.56626 -43.46066,-0.0183 0.005,-3.40718 c 0.003,-1.87395 0.0185,-3.37438 0.0345,-3.33429 0.0194,0.0486 43.49846,0.0668 130.29028,0.0546 l 130.26122,-0.0183 0,3.34048 0,3.34048 -65.12485,0.0486 c -35.81868,0.0267 -74.89445,0.0404 -86.83506,0.0304 -11.94062,-0.01 -41.26752,-0.0264 -65.17088,-0.0365 z m 477.83728,0.006 c -0.025,-0.0267 -0.046,-1.5517 -0.046,-3.38888 l 0,-3.3403 43.4434,-0.0183 43.4434,-0.0183 0,3.40724 0,3.40723 -43.3974,0 c -23.8686,0 -43.4181,-0.0219 -43.4434,-0.0486 z M 633.26404,224.13102 c -7.36173,-0.34125 -13.52696,-2.57156 -17.46018,-6.31633 -0.20876,-0.19876 -0.42534,-0.43035 -0.48128,-0.51465 -0.0997,-0.15022 -0.0983,-0.15097 0.069,-0.0378 0.94761,0.64069 2.56223,1.47672 3.83422,1.98531 4.3286,1.73076 9.98375,2.36761 15.62552,1.75967 10.91867,-1.17658 21.66192,-6.27326 28.50028,-13.52076 2.20839,-2.34052 3.73996,-4.54285 4.93931,-7.10251 1.29052,-2.75424 1.82341,-5.111 1.73784,-7.68583 -0.19875,-5.98111 -4.10369,-10.70816 -10.88501,-13.17667 -4.53407,-1.65048 -9.91678,-2.10537 -16.14894,-1.36475 -0.52245,0.0621 -0.0973,-0.0864 1.27674,-0.44597 2.9014,-0.75922 5.76323,-1.26162 8.97163,-1.57501 1.32379,-0.12931 6.85124,-0.12805 8.10898,0.002 2.16696,0.22379 3.96288,0.54588 5.83156,1.04584 10.4594,2.79843 15.67417,10.13965 13.55794,19.08651 -1.65399,6.99259 -7.80385,14.23721 -16.62406,19.58337 -9.37028,5.67958 -20.79277,8.74414 -30.85356,8.27777 z"
           style="fill:#706f70;stroke:none"
           sodipodi:nodetypes="ccccscccsscccscccccsccasccssssssccscsssca" />
        <path
           inkscape:connector-curvature="0"
           id="path4840"
           d="m 1083.2199,260.57229 c -0.025,-0.0267 -0.046,-1.55173 -0.046,-3.38891 l 0,-3.3403 43.4434,-0.0183 43.4434,-0.0183 0,3.40724 0,3.40723 -43.3974,0 c -23.8686,0 -43.4181,-0.0219 -43.4434,-0.0486 z"
           style="fill:#4ab539"
           sodipodi:nodetypes="cscccccscc" />
        <path
           inkscape:connector-curvature="0"
           id="path4838"
           d="m 605.38262,260.56629 -43.46066,-0.0184 0.005,-3.40717 c 0.003,-1.87395 0.0235,-3.38954 0.0235,-3.38954 0.26237,-0.007 14.54729,0.19574 43.4145,0.10974 l 43.45482,-0.12946 0.004,6.84119 z M 597.843,237.99677 c -8.08564,-2.17895 -15.30155,-5.20047 -20.92401,-8.76153 -6.13388,-3.88496 -10.58789,-8.51293 -12.92197,-13.42666 -0.94904,-1.99792 -1.63748,-4.2949 -1.87067,-6.24153 -0.0432,-0.36076 -0.11465,-0.73469 -0.15874,-0.83096 -0.10776,-0.23528 -0.10916,-3.66302 -0.002,-3.80611 0.0415,-0.0551 0.0966,-0.32818 0.1225,-0.60675 0.23125,-2.48659 1.3638,-5.91592 2.86548,-8.67665 7.70789,-14.17034 29.46031,-26.62711 56.93984,-32.60725 14.91018,-3.24478 30.88948,-4.53565 45.61731,-3.68516 3.862,0.22302 9.30541,0.7262 9.44443,0.87302 0.0185,0.0195 -0.1502,0.0186 -0.37487,-0.002 -1.95532,-0.18001 -10.09191,-0.24653 -13.24482,-0.1083 -16.99225,0.74501 -34.25955,4.71608 -48.77297,11.21662 -6.25038,2.79953 -12.44095,6.34386 -17.22358,9.86114 -11.49167,8.45128 -18.1172,18.05919 -19.13822,27.753 -0.12719,1.20765 -0.10727,3.82815 0.038,4.99242 0.67257,5.39172 2.95036,10.11374 6.97306,14.45565 2.48243,2.67941 5.0712,4.77123 8.62808,6.97179 1.18527,0.73329 3.4244,1.96227 4.58934,2.5189 0.68035,0.32509 1.01233,0.51204 0.89371,0.5033 -0.0171,-0.001 -0.68322,-0.17804 -1.48032,-0.39284 z"
           style="fill:#085ba8;stroke:none"
           sodipodi:nodetypes="ccccsccccssccccsssccsssscsssccc" />
        <path
           inkscape:connector-curvature="0"
           id="path4836"
           d="m 648.82397,253.72737 43.42789,0.15196 43.405,-0.14844 0.004,3.50102 0,3.35257 -43.42423,0.0183 -43.43984,-0.0286 z M 619.2714,236.81221 c -3.12588,-0.0902 -6.75959,-0.46397 -9.76672,-1.00465 -14.90263,-2.67947 -24.83898,-10.22094 -26.81247,-20.35007 -0.44788,-2.29877 -0.45932,-5.09948 -0.0308,-7.53028 1.72075,-9.76025 10.13242,-19.75639 23.01449,-27.34961 6.30517,-3.71653 13.87312,-6.82583 21.56779,-8.86113 2.80874,-0.74294 7.42043,-1.73222 7.79087,-1.67127 0.0793,0.013 -0.49243,0.24877 -1.27055,0.52383 -11.38023,4.0228 -20.98605,9.99985 -27.51319,17.1196 -4.60024,5.01791 -7.27249,10.18162 -8.0031,15.4648 -0.16617,1.20161 -0.16688,3.48428 -10e-4,4.62801 0.34303,2.37137 1.14128,4.67424 2.28634,6.59583 1.04191,1.74848 2.84639,3.85563 4.48765,5.24036 1.55418,1.31127 3.56186,2.62473 5.59001,3.6571 8.92716,4.54409 21.51698,6.0395 34.88586,4.14371 10.46298,-1.48372 21.38449,-5.12583 29.81722,-9.94347 0.57347,-0.32762 1.05843,-0.57901 1.07772,-0.55865 0.0531,0.056 -1.57406,1.46131 -3.04837,2.6327 -14.03604,11.15205 -34.90893,17.81607 -54.07135,17.26319 z"
           style="fill:#b22730;stroke:none"
           sodipodi:nodetypes="cccccccccsscsscssscssssscscc" />
      </g>
      <text
         transform="scale(0.87940175,1.1371367)"
         sodipodi:linespacing="125%"
         id="text4877"
         y="176.07195"
         x="33.851284"
         style="font-style:normal;font-weight:normal;font-size:39.16872025px;line-height:125%;font-family:sans-serif;letter-spacing:0px;word-spacing:0px;fill:#828282;fill-opacity:0.94117647;stroke:none;stroke-width:1px;stroke-linecap:butt;stroke-linejoin:miter;stroke-opacity:1"
         xml:space="preserve"><tspan
           y="176.07195"
           x="33.851284"
           id="tspan4879"
           sodipodi:role="line">MIEMBROS DE GRUPO</tspan></text>
    </g>
  </g>
</svg>
