<?xml version="1.0" encoding="utf-8"?>
<!DOCTYPE svg PUBLIC "-//W3C//DTD SVG 1.1//EN" "http://www.w3.org/Graphics/SVG/1.1/DTD/svg11.dtd">
<svg version="1.1" xmlns="http://www.w3.org/2000/svg" xmlns:xlink="http://www.w3.org/1999/xlink" x="0px" y="0px" viewBox="0 0 1000 1000" enable-background="new 0 0 1000 1000" xml:space="preserve">
<g fill="white">
  <path d="M219.1,290.1C219.5,156,330.7,47.6,467.5,47.9C604.4,48.3,715,157.4,714.6,291.5C714.2,425.6,603,534.1,466.1,533.7c-136.3-0.4-246.7-108.6-247.1-242.2V290.1z"/>
  <path d="M707.3,573.1C649,614.3,577.4,638.6,500,638.6c-77.4,0-149-24.3-207.3-65.4C163.1,654.9,75.5,810.9,75.5,990h848.9C924.5,810.9,836.9,654.9,707.3,573.1z"/>
  <path d="M219.9,290.1c0,154.7,125.4,280.1,280.1,280.1c154.7,0,280.1-125.4,280.1-280.1S654.7,10,500,10C345.3,10,219.9,135.4,219.9,290.1z"/></g>
</svg>